# xmcd
#
# Track frame offsets:
#	150
#	12785
#	25647
#	36162
#	49467
#	64090
#	77742
#	90202
#	104660
#	116985
#	129765
#	142602
#	155960
#	169632
#	195097
#
# Disc length: 4440 seconds
#
# Revision: 0
# Processed by: cddbd v1.5.2PL0 Copyright (c) Steve Scherf et al.
# Submitted via: dBpowerAMP V4.0
#
DISCID=b611560f
DTITLE=Demônios da Garoa - Bis (1)
DYEAR=2004
DGENRE=Samba
TTITLE0=Saudosa Maloca
TTITLE1=Promessa do Jacob
TTITLE2=Pafunça
TTITLE3=Iracema
TTITLE4=Tiro ao Álvaro
TTITLE5=Não emplaca 61
TTITLE6=Um samba no Bixiga
TTITLE7=Maloca dos meus amores
TTITLE8=No morro da Casa Verde
TTITLE9=Malvina
TTITLE10=Abrigo de vagabundo
TTITLE11=Apaga o fogo Mané
TTITLE12=Samba de gaiato
TTITLE13=Mulhé rendeira
TTITLE14=DATA
EXTD=Demonios da Garoa - Bis
EXTT0=
EXTT1=
EXTT2=
EXTT3=
EXTT4=
EXTT5=
EXTT6=
EXTT7=
EXTT8=
EXTT9=
EXTT10=
EXTT11=
EXTT12=
EXTT13=
EXTT14=
PLAYORDER=
